<svg xmlns="http://www.w3.org/2000/svg" xmlns:xlink="http://www.w3.org/1999/xlink" viewBox="0 0 49.76 32.53"><defs><style>.cls-1{fill:#fff;}</style><symbol id="Logo_-_Curity_card_white" data-name="Logo - Curity card white" viewBox="0 0 49.76 32.53"><path class="cls-1" d="M44.67,20.63l-.5.5a14.22,14.22,0,0,1-9.79,4.46,9,9,0,0,1-9.26-9.31c0-5.39,3.8-9.3,9-9.3a14.92,14.92,0,0,1,9.15,3.6l.5.44,5-5.25-.56-.48A23.08,23.08,0,0,0,33.62,0,16.51,16.51,0,0,0,19.86,6.87H10.61l-.54,4.56h7.6A15.29,15.29,0,0,0,17.14,14H5.77l-.54,4.55H17.14a16.35,16.35,0,0,0,.52,2.56H.54L0,25.65H19.82a16.67,16.67,0,0,0,14,6.88,22.66,22.66,0,0,0,15.38-6.21l.53-.49Z"/><polygon class="cls-1" points="4.48 13.99 1.13 13.99 0.59 18.54 3.94 18.54 4.48 13.99"/></symbol></defs><g id="Lager_2" data-name="Lager 2"><g id="Lager_1-2" data-name="Lager 1"><use width="49.76" height="32.53" xlink:href="#Logo_-_Curity_card_white"/></g></g></svg>